<svg width="24" height="23" fill="none" xmlns="http://www.w3.org/2000/svg"><g clip-path="url(#clip0)"><path d="M22.384.938H2.051v19.83h20.333V.939z" fill="#2A0034"/><path fill-rule="evenodd" clip-rule="evenodd" d="M1.127.011v21.684h22.182V.011H1.127zm.924.927h20.334v19.83H2.05V.939z" fill="#EA77FF"/><path fill-rule="evenodd" clip-rule="evenodd" d="M6.95 5.09c0-.065.018-.112.092-.112.592-.027 1.46-.046 2.375-.046 2.56 0 3.679 1.409 3.679 3.206 0 2.354-1.7 3.364-3.79 3.364-.35 0-.47-.018-.72-.018v3.558c0 .074-.028.111-.111.111H7.05c-.074 0-.11-.028-.11-.111V5.09h.009zm1.636 4.92c.212.019.379.019.748.019 1.082 0 2.098-.38 2.098-1.854 0-1.176-.72-1.77-1.96-1.77-.369 0-.72.02-.886.028v3.577zm5.915-.843c0-.111 0-.38-.046-.899 0-.074.009-.093.074-.12.563-.232 1.885-.64 3.382-.64.074 0 .111.019.111.093v1.344c0 .074-.027.092-.101.092-.583-.028-1.424.047-1.747.186v5.838c0 .074-.028.11-.111.11h-1.451c-.074 0-.111-.027-.111-.11V9.167z" fill="#EA77FF"/></g><defs><clipPath id="clip0"><path fill="#fff" transform="translate(.93)" d="M0 0h22.781v22.148H0z"/></clipPath></defs></svg>
