<svg width="25" height="22" fill="none" xmlns="http://www.w3.org/2000/svg"><g clip-path="url(#clip0)"><path d="M15.374.869h-7.33a.985.985 0 00-.974.984v4.033h8.304V.869z" fill="#169154"/><path d="M7.07 15.968V20c0 .516.418.985.975.985h7.329v-5.017H7.07z" fill="#18482A"/><path d="M15.374 5.886H7.07v5.017h8.304V5.886z" fill="#0C8045"/><path d="M15.374 10.903H7.07v5.064h8.304v-5.064z" fill="#17472A"/><path d="M22.657.869h-7.283v5.017h8.304V1.853c-.047-.562-.464-.984-1.02-.984z" fill="#29C27F"/><path d="M15.374 15.967v4.97h7.33c.51 0 .974-.421.974-.984V15.92l-8.304.047z" fill="#27663F"/><path d="M23.678 5.886h-8.304v5.017h8.304V5.886z" fill="#19AC65"/><path d="M23.678 10.903h-8.304v5.064h8.304v-5.064z" fill="#129652"/><path d="M11.663 16.483H2.478a.935.935 0 01-.928-.938V6.261c0-.516.417-.938.928-.938h9.185c.51 0 .928.422.928.938v9.284a.936.936 0 01-.928.938z" fill="#0C7238"/><path d="M4.75 8.09h1.346l1.067 2.11 1.113-2.11H9.53l-1.717 2.813 1.717 2.813h-1.3L7.07 11.514l-1.16 2.204H4.611l1.763-2.814L4.751 8.09z" fill="#fff"/></g><defs><clipPath id="clip0"><path fill="#fff" transform="translate(.922 .633)" d="M0 0h23.414v20.883H0z"/></clipPath></defs></svg>
