<svg width="26" height="23" fill="none" xmlns="http://www.w3.org/2000/svg"><path d="M23.748.235H8.172c-.588 0-1.028.445-1.028 1.038v4.302h17.632V1.273c0-.593-.44-1.038-1.028-1.038z" fill="#2D92D4"/><path d="M7.192 16.257v4.252c0 .594.441 1.039 1.029 1.039h15.576c.587 0 1.028-.445 1.028-1.039v-4.252H7.192z" fill="#2150A9"/><path d="M24.776 5.575H7.192v5.34h17.584v-5.34z" fill="#2D83D4"/><path d="M24.776 10.916H7.192v5.34h17.584v-5.34z" fill="#2E70C9"/><path d="M12.042 16.8H2.295a.987.987 0 01-.98-.988V5.97c0-.544.441-.99.98-.99h9.747c.539 0 .98.446.98.99v9.84c0 .544-.441.99-.98.99z" fill="#00488D"/><path d="M9.74 7.949l-.882 4.302-1.029-4.302H6.556l-1.029 4.4-.93-4.4H3.42l1.371 5.934h1.42l.98-4.6 1.029 4.6h1.322l1.372-5.934H9.739z" fill="#fff"/></svg>
