<svg width="26" height="23" fill="none" xmlns="http://www.w3.org/2000/svg"><g clip-path="url(#clip0)"><path d="M3.554 10.866c0 5.912 4.845 10.681 10.85 10.681 6.007 0 10.801-4.769 10.801-10.681H3.554z" fill="#DC4C2C"/><path d="M14.354.234v10.632h10.852C25.206 5.004 20.36.234 14.354.234z" fill="#F7A278"/><path d="M14.354.235c-5.955 0-10.8 4.769-10.8 10.631h10.85V.235h-.05z" fill="#C06346"/><path d="M12.134 16.828H2.141c-.555 0-1.01-.447-1.01-.994V5.948c0-.547.455-.994 1.01-.994h9.993c.555 0 1.01.447 1.01.994v9.886c0 .547-.455.994-1.01.994z" fill="#9B341F"/><path d="M7.541 7.935H4.715v5.912h1.211V11.76H7.29c1.11 0 2.07-.894 2.07-2.036v-.05c0-.944-.808-1.739-1.818-1.739zm.555 1.987a.95.95 0 01-.959.944h-1.16V8.88h1.21c.506 0 .96.397.96.944v.1h-.05z" fill="#fff"/></g><defs><clipPath id="clip0"><path fill="#fff" transform="translate(.46)" d="M0 0h25.313v22.148H0z"/></clipPath></defs></svg>
