<svg width="18" height="34" fill="none" xmlns="http://www.w3.org/2000/svg"><path d="M17.686 24.822L10.629 17l7.057-7.82a1.227 1.227 0 00-.125-1.762L8.982.278A1.19 1.19 0 007.705.117c-.421.2-.69.63-.69 1.1v11.779L2.091 7.537a1.193 1.193 0 00-1.7-.078 1.228 1.228 0 00-.076 1.72l6.7 7.427v.788l-6.7 7.428a1.227 1.227 0 00.077 1.72c.49.453 1.251.418 1.699-.08l4.924-5.457v11.778c0 .47.269.9.69 1.1a1.194 1.194 0 001.277-.16l8.58-7.14c.254-.213.411-.521.435-.854a1.224 1.224 0 00-.311-.907zM9.42 3.794l5.634 4.69-5.634 6.245V3.794zm0 26.412V19.272l5.634 6.244-5.634 4.69z" fill="#C4C4C4"/></svg>
