<svg width="23" height="23" fill="none" xmlns="http://www.w3.org/2000/svg"><g clip-path="url(#clip0)"><path d="M21.273.938H.939v19.83h20.334V.939z" fill="#001D26"/><path fill-rule="evenodd" clip-rule="evenodd" d="M.015.011v21.684h22.182V.011H.015zm.924.927h20.334v19.83H.939V.939z" fill="#00C8FF"/><path fill-rule="evenodd" clip-rule="evenodd" d="M5.375 5.108c0-.046.139-.092.185-.092.6-.047 1.479-.047 2.403-.047 2.542 0 3.558 1.39 3.558 3.197 0 2.363-1.71 3.383-3.79 3.383h-.739v3.567c0 .093-.046.093-.092.093H5.467c-.092 0-.092-.046-.092-.093V5.108zm1.617 4.912h.74c1.063 0 2.08-.371 2.08-1.854 0-1.158-.74-1.76-1.942-1.76-.37 0-.739 0-.878.046v3.568zm7.995-1.112c-.74 0-.97.37-.97.695 0 .324.185.556 1.155 1.065 1.433.695 1.895 1.39 1.895 2.363 0 1.483-1.11 2.27-2.634 2.27-.786 0-1.48-.185-1.895-.417-.046-.046-.093-.092-.093-.139v-1.343c0-.093.047-.14.093-.093.6.37 1.248.556 1.848.556.74 0 1.017-.324 1.017-.741 0-.325-.23-.649-1.155-1.112-1.294-.649-1.849-1.251-1.849-2.317 0-1.204.925-2.177 2.542-2.177.786 0 1.34.139 1.664.278.092.046.092.139.092.185v1.25c0 .094-.046.14-.139.094-.37-.278-.97-.417-1.57-.417z" fill="#00C8FF"/></g><defs><clipPath id="clip0"><path fill="#fff" d="M0 0h22.781v22.148H0z"/></clipPath></defs></svg>
